<?xml version="1.0" encoding="UTF-8" standalone="no"?>
<!-- Created with Inkscape (http://www.inkscape.org/) -->

<svg
   xmlns:dc="http://purl.org/dc/elements/1.1/"
   xmlns:cc="http://creativecommons.org/ns#"
   xmlns:rdf="http://www.w3.org/1999/02/22-rdf-syntax-ns#"
   xmlns:svg="http://www.w3.org/2000/svg"
   xmlns="http://www.w3.org/2000/svg"
   xmlns:sodipodi="http://sodipodi.sourceforge.net/DTD/sodipodi-0.dtd"
   xmlns:inkscape="http://www.inkscape.org/namespaces/inkscape"
   id="svg2"
   version="1.1"
   inkscape:version="0.48.3.1 r9886"
   width="81.377403"
   height="81.844154"
   sodipodi:docname="Icon_Sound_ear.jpg">
  <metadata
     id="metadata8">
    <rdf:RDF>
      <cc:Work
         rdf:about="">
        <dc:format>image/svg+xml</dc:format>
        <dc:type
           rdf:resource="http://purl.org/dc/dcmitype/StillImage" />
        <dc:title></dc:title>
      </cc:Work>
    </rdf:RDF>
  </metadata>
  <defs
     id="defs6" />
  <sodipodi:namedview
     pagecolor="#ffffff"
     bordercolor="#666666"
     borderopacity="1"
     objecttolerance="10"
     gridtolerance="10"
     guidetolerance="10"
     inkscape:pageopacity="0"
     inkscape:pageshadow="2"
     inkscape:window-width="1366"
     inkscape:window-height="720"
     id="namedview4"
     showgrid="false"
     fit-margin-top="0"
     fit-margin-left="0"
     fit-margin-right="0"
     fit-margin-bottom="0"
     inkscape:zoom="1.18"
     inkscape:cx="-90.110045"
     inkscape:cy="-9.7341895"
     inkscape:window-x="0"
     inkscape:window-y="0"
     inkscape:window-maximized="1"
     inkscape:current-layer="svg2" />
  <path
     style="fill:#000000"
     d="M 16.80322,80.53635 C 11.67488,78.30588 8.11652,69.24222 10.89237,65.48055 12.75622,62.95476 14.4297,64.39877 15.10569,69.11614 15.68054,73.12771 19.59549,77 23.07639,77 30.57969,77 34.59923,72.58778 37.17138,61.52802 37.96984,58.09482 40.96214,51.31352 44.1228,45.77439 47.22228,40.34248 49.91034,34.2739 50.21151,32.02852 52.17877,17.36149 37.69171,4.67602 22.57844,7.83187 13.13961,9.80281 7.5498,15.20607 5.52151,24.31954 c -0.76871,3.45392 -0.76305,5.96928 0.02,8.87721 1.28654,4.77784 0.0741,7.00395 -2.82034,5.1782 C 0.31871002,36.85952 -0.73240998,29.53289 0.55269002,23.25997 3.15044,10.57965 13.45608,2.47555 26.91782,2.52706 c 15.46697,0.0592 26.99562,10.03917 28.30731,24.50476 0.61875,6.8237 -0.69663,11.23385 -5.87319,19.69134 -4.7292,7.7266 -6.30703,11.44953 -7.78561,18.37029 -0.63529,2.9736 -2.29245,7.12938 -3.68258,9.23506 -4.35219,6.59243 -13.79959,9.37452 -21.08051,6.20784 z M 15.93288,60.93854 c -2.59457,-2.86698 -2.73742,-12.22579 -0.19437,-12.73486 1.43289,-0.28685 1.75,0.37296 1.75,3.64121 0,8.03801 1.91631,9.28123 4.37651,2.83929 0.90653,-2.3737 3.21766,-5.83698 5.13586,-7.69617 2.30782,-2.23682 3.48763,-4.30467 3.48763,-6.11274 0,-5.11021 -5.34307,-7.68474 -9.02788,-4.35004 -1.45294,1.31489 -1.84822,1.32898 -2.86638,0.10219 -0.94756,-1.14174 -0.63003,-1.85645 1.60631,-3.61555 5.44182,-4.28054 14.28795,0.11131 14.28795,7.09356 0,3.61808 -2.33829,8.42668 -4.50128,9.25669 -0.86639,0.33247 -2.61264,2.84357 -3.88055,5.58022 -3.96154,8.55059 -6.50531,10.04983 -10.1738,5.9962 z m 21.9929,-20.2414 c -0.27497,-0.71658 0.18915,-2.95213 1.03139,-4.96788 2.04066,-4.884 1.92559,-7.57034 -0.49429,-11.53943 C 36.17259,20.43331 31.25113,18 25.94371,18 21.19945,18 16.98116,22.15786 15.41493,28.37795 14.67366,31.3218 13.70233,33 12.73974,33 c -2.28166,0 -1.05015,-8.20475 1.87713,-12.50602 4.62421,-6.79471 12.03643,-8.20946 20.6148,-3.93468 8.71593,4.34334 11.41699,13.42897 6.70256,22.54568 -1.59633,3.08695 -3.19168,3.72062 -4.00845,1.59216 z m 36.15793,-3.5431 c -0.32344,-0.52334 0.30044,-2.9096 1.3864,-5.30278 C 79.45185,23.07651 77.24442,11.31097 70.4204,4.93638 67.41461,2.12855 67.22022,0 69.9696,0 c 2.27122,0 8.34649,7.96483 10.09835,13.23917 1.04867,3.15725 1.49783,7.01022 1.23679,10.60929 -0.59027,8.13821 -5.18368,16.60209 -7.22103,13.30558 z m -5.99692,-3.99502 c -0.32175,-0.5206 0.13438,-2.66828 1.01363,-4.77262 2.31891,-5.54991 1.36548,-11.5867 -2.61158,-16.53561 -2.36495,-2.94286 -2.93369,-4.31743 -2.12216,-5.12895 0.81153,-0.81153 1.90966,-0.34123 4.09749,1.75484 3.94312,3.77775 6.43453,10.4285 5.76803,15.39761 -0.89357,6.66202 -4.44768,12.03172 -6.14541,9.28473 z m -5.87184,-4.76591 c -0.33379,-0.33379 -0.34434,-2.82369 -0.0234,-5.53311 0.50247,-4.24259 0.2601,-5.27038 -1.74653,-7.40635 -1.58308,-1.68511 -2.00315,-2.80695 -1.31043,-3.49967 2.62995,-2.62995 7.35397,3.48295 7.35397,9.51606 0,5.28112 -2.25785,8.93878 -4.27356,6.92307 z"
     id="path2987"
     inkscape:connector-curvature="0" />
</svg>
